<?xml version="1.0" encoding="UTF-8" standalone="no"?>
<!DOCTYPE svg PUBLIC "-//W3C//DTD SVG 1.1//EN"
 "http://www.w3.org/Graphics/SVG/1.1/DTD/svg11.dtd">
<!-- Generated by graphviz version 12.2.1 (0)
 -->
<!-- Title: trace_SimpleChallengeResponse_SL2&#45;AS0&#45;CL0&#45;A1&#45;C1&#45;NB_Client_session_key_setup_stronger&#45;Client_1&#45;Register_pk&#45;Client_1&#45;Serv_1&#45;Client_1 Pages: 1 -->
<svg width="562pt" height="551pt"
 viewBox="0.00 0.00 562.38 550.51" xmlns="http://www.w3.org/2000/svg" xmlns:xlink="http://www.w3.org/1999/xlink">
<g id="graph0" class="graph" transform="scale(1 1) rotate(0) translate(4 546.51)">
<title>trace_SimpleChallengeResponse_SL2&#45;AS0&#45;CL0&#45;A1&#45;C1&#45;NB_Client_session_key_setup_stronger&#45;Client_1&#45;Register_pk&#45;Client_1&#45;Serv_1&#45;Client_1</title>
<polygon fill="white" stroke="none" points="-4,4 -4,-546.51 558.38,-546.51 558.38,4 -4,4"/>
<!-- n3 -->
<g id="node1" class="node">
<title>n3</title>
<polygon fill="#d5d897" stroke="black" points="142.25,-42.25 142.25,-77.75 274.5,-77.75 274.5,-42.25 142.25,-42.25"/>
<text text-anchor="middle" x="181.88" y="-66.15" font-family="Helvetica,sans-Serif" font-size="8.00">Client_1( $S, ~k )</text>
<polyline fill="none" stroke="black" points="221.5,-60 221.5,-77.75"/>
<text text-anchor="middle" x="248" y="-66.15" font-family="Helvetica,sans-Serif" font-size="8.00">In( h(~k) )</text>
<polyline fill="none" stroke="black" points="142.25,-60 274.5,-60"/>
<text text-anchor="middle" x="208.38" y="-48.4" font-family="Helvetica,sans-Serif" font-size="8.00">#i : Client_2[SessKeyC( $S, ~k )]</text>
</g>
<!-- n32 -->
<g id="node12" class="node">
<title>n32</title>
<text text-anchor="start" x="85" y="-7.15" font-family="Helvetica,sans-Serif" font-size="8.00" fill="#000000">AE1</text>
<text text-anchor="start" x="105" y="-7.15" font-family="Helvetica,sans-Serif" font-size="8.00">=</text>
<text text-anchor="start" x="114.5" y="-7.15" font-family="Helvetica,sans-Serif" font-size="8.00">aenc(&lt;&#39;1&#39;, ~k&gt;, pk(~ltk))</text>
<polygon fill="none" stroke="black" points="80,0 80,-19.75 202.75,-19.75 202.75,0 80,0"/>
</g>
<!-- n3&#45;&gt;n32 -->
<!-- n8 -->
<g id="node2" class="node">
<title>n8</title>
<polygon fill="#a6dd9a" stroke="black" points="0,-242.06 0,-295.31 148.75,-295.31 148.75,-242.06 0,-242.06"/>
<text text-anchor="middle" x="41.25" y="-283.71" font-family="Helvetica,sans-Serif" font-size="8.00">!Ltk( $S, ~ltk )</text>
<polyline fill="none" stroke="black" points="82.5,-277.56 82.5,-295.31"/>
<text text-anchor="middle" x="115.25" y="-283.71" font-family="Helvetica,sans-Serif" font-size="8.00">In( AE1 )</text>
<polyline fill="none" stroke="black" points="0,-277.56 148.75,-277.56"/>
<text text-anchor="middle" x="74.38" y="-265.96" font-family="Helvetica,sans-Serif" font-size="8.00">#j : Serv_1[AnswerRequest( $S, ~k )]</text>
<polyline fill="none" stroke="black" points="0,-259.81 148.75,-259.81"/>
<text text-anchor="middle" x="74" y="-248.21" font-family="Helvetica,sans-Serif" font-size="8.00">Out( h(~k) )</text>
</g>
<!-- n8&#45;&gt;n32 -->
<!-- n9 -->
<g id="node3" class="node">
<title>n9</title>
<ellipse fill="none" stroke="black" cx="274.38" cy="-112.8" rx="36.77" ry="12.55"/>
<text text-anchor="middle" x="274.38" y="-110.08" font-family="Helvetica,sans-Serif" font-size="8.00">#vf : isend</text>
</g>
<!-- n9&#45;&gt;n3 -->
<g id="edge1" class="edge">
<title>n9&#45;&gt;n3:n1</title>
<path fill="none" stroke="#4d4d4d" d="M259.95,-100.98C256.49,-97.66 253.14,-93.69 250.87,-89.28"/>
<polygon fill="#4d4d4d" stroke="#4d4d4d" points="254.29,-88.51 248.38,-79.71 247.52,-90.27 254.29,-88.51"/>
</g>
<!-- n10 -->
<g id="node4" class="node">
<title>n10</title>
<ellipse fill="none" stroke="black" cx="288.38" cy="-377.46" rx="71.77" ry="12.55"/>
<text text-anchor="middle" x="288.38" y="-374.74" font-family="Helvetica,sans-Serif" font-size="8.00">#vk : coerce[!KU( AE1 )]</text>
</g>
<!-- n17 -->
<g id="node6" class="node">
<title>n17</title>
<ellipse fill="none" stroke="black" cx="258.38" cy="-330.36" rx="41.54" ry="12.55"/>
<text text-anchor="middle" x="258.38" y="-327.63" font-family="Helvetica,sans-Serif" font-size="8.00">#vf.1 : isend</text>
</g>
<!-- n10&#45;&gt;n17 -->
<g id="edge11" class="edge">
<title>n10&#45;&gt;n17</title>
<path fill="none" stroke="red" stroke-dasharray="5,2" d="M280.49,-364.61C277.99,-360.85 275.15,-356.58 272.35,-352.37"/>
<polygon fill="red" stroke="red" points="275.39,-350.62 266.94,-344.23 269.56,-354.5 275.39,-350.62"/>
</g>
<!-- n31 -->
<g id="node11" class="node">
<title>n31</title>
<ellipse fill="none" stroke="black" cx="363.38" cy="-330.36" rx="41.54" ry="12.55"/>
<text text-anchor="middle" x="363.38" y="-327.63" font-family="Helvetica,sans-Serif" font-size="8.00">#vf.4 : isend</text>
</g>
<!-- n10&#45;&gt;n31 -->
<g id="edge12" class="edge">
<title>n10&#45;&gt;n31</title>
<path fill="none" stroke="red" stroke-dasharray="5,2" d="M307.3,-365.08C315.91,-359.9 326.25,-353.68 335.71,-348"/>
<polygon fill="red" stroke="red" points="337.42,-351.05 344.19,-342.89 333.82,-345.05 337.42,-351.05"/>
</g>
<!-- n16 -->
<g id="node5" class="node">
<title>n16</title>
<polygon fill="#beda99" stroke="black" points="142.5,-412.51 142.5,-465.76 274.25,-465.76 274.25,-412.51 142.5,-412.51"/>
<text text-anchor="middle" x="166.5" y="-454.16" font-family="Helvetica,sans-Serif" font-size="8.00">Fr( ~k )</text>
<polyline fill="none" stroke="black" points="190.5,-448.01 190.5,-465.76"/>
<text text-anchor="middle" x="232.12" y="-454.16" font-family="Helvetica,sans-Serif" font-size="8.00">!Pk( $S, pk(~ltk) )</text>
<polyline fill="none" stroke="black" points="142.5,-448.01 274.25,-448.01"/>
<text text-anchor="middle" x="208.12" y="-436.41" font-family="Helvetica,sans-Serif" font-size="8.00">#vr : Client_1</text>
<polyline fill="none" stroke="black" points="142.5,-430.26 274.25,-430.26"/>
<text text-anchor="middle" x="181.62" y="-418.66" font-family="Helvetica,sans-Serif" font-size="8.00">Client_1( $S, ~k )</text>
<polyline fill="none" stroke="black" points="220.75,-412.51 220.75,-430.26"/>
<text text-anchor="middle" x="247.5" y="-418.66" font-family="Helvetica,sans-Serif" font-size="8.00">Out( AE1 )</text>
</g>
<!-- n16&#45;&gt;n3 -->
<g id="edge2" class="edge">
<title>n16:n14&#45;&gt;n3:n0</title>
<path fill="none" stroke="black" stroke-width="2" d="M181.62,-412.01C181.62,-376.16 182.38,-367.21 182.38,-331.36 182.38,-331.36 182.38,-331.36 182.38,-158.9 182.38,-127.12 181.98,-116.47 181.89,-89.48"/>
<polygon fill="black" stroke="black" stroke-width="2" points="185.4,-91.27 181.88,-81.28 178.4,-91.28 185.4,-91.27"/>
</g>
<!-- n16&#45;&gt;n10 -->
<g id="edge3" class="edge">
<title>n16:n15&#45;&gt;n10</title>
<path fill="none" stroke="#ee4000" d="M275.25,-421.39C284.76,-421.39 288.19,-411.63 289.17,-401.42"/>
<polygon fill="#ee4000" stroke="#ee4000" points="292.66,-401.78 289.39,-391.7 285.66,-401.62 292.66,-401.78"/>
</g>
<!-- n17&#45;&gt;n8 -->
<g id="edge4" class="edge">
<title>n17&#45;&gt;n8:n5</title>
<path fill="none" stroke="#4d4d4d" d="M242.11,-318.53C223.58,-307.15 191.77,-290.45 160.15,-287.05"/>
<polygon fill="#4d4d4d" stroke="#4d4d4d" points="160.69,-283.57 150.51,-286.52 160.3,-290.56 160.69,-283.57"/>
</g>
<!-- n18 -->
<g id="node7" class="node">
<title>n18</title>
<ellipse fill="none" stroke="black" cx="385.38" cy="-159.9" rx="79.73" ry="12.55"/>
<text text-anchor="middle" x="385.38" y="-157.18" font-family="Helvetica,sans-Serif" font-size="8.00">#vk.1 : coerce[!KU( h(~k) )]</text>
</g>
<!-- n18&#45;&gt;n9 -->
<g id="edge13" class="edge">
<title>n18&#45;&gt;n9</title>
<path fill="none" stroke="red" stroke-dasharray="5,2" d="M357.94,-147.75C342.71,-141.57 323.65,-133.82 307.58,-127.29"/>
<polygon fill="red" stroke="red" points="309,-124.09 298.42,-123.57 306.37,-130.58 309,-124.09"/>
</g>
<!-- n19 -->
<g id="node8" class="node">
<title>n19</title>
<ellipse fill="none" stroke="black" cx="429.38" cy="-207.01" rx="39.42" ry="12.55"/>
<text text-anchor="middle" x="429.38" y="-204.28" font-family="Helvetica,sans-Serif" font-size="8.00">#vl.1 : irecv</text>
</g>
<!-- n19&#45;&gt;n18 -->
<g id="edge5" class="edge">
<title>n19&#45;&gt;n18</title>
<path fill="none" stroke="#ee4000" d="M418.27,-194.62C414.2,-190.45 409.46,-185.59 404.87,-180.88"/>
<polygon fill="#ee4000" stroke="#ee4000" points="407.48,-178.55 397.99,-173.84 402.47,-183.44 407.48,-178.55"/>
</g>
<!-- n25 -->
<g id="node9" class="node">
<title>n25</title>
<polygon fill="#aedc9a" stroke="black" points="126.75,-488.76 126.75,-542.01 336,-542.01 336,-488.76 126.75,-488.76"/>
<text text-anchor="middle" x="231.12" y="-530.41" font-family="Helvetica,sans-Serif" font-size="8.00">Fr( ~ltk )</text>
<polyline fill="none" stroke="black" points="126.75,-524.26 336,-524.26"/>
<text text-anchor="middle" x="231.12" y="-512.66" font-family="Helvetica,sans-Serif" font-size="8.00">#vr.1 : Register_pk</text>
<polyline fill="none" stroke="black" points="126.75,-506.51 336,-506.51"/>
<text text-anchor="middle" x="159.5" y="-494.91" font-family="Helvetica,sans-Serif" font-size="8.00">!Ltk( $S, ~ltk )</text>
<polyline fill="none" stroke="black" points="192.25,-488.76 192.25,-506.51"/>
<text text-anchor="middle" x="231.38" y="-494.91" font-family="Helvetica,sans-Serif" font-size="8.00">!Pk( $S, pk(~ltk) )</text>
<polyline fill="none" stroke="black" points="270.5,-488.76 270.5,-506.51"/>
<text text-anchor="middle" x="303.25" y="-494.91" font-family="Helvetica,sans-Serif" font-size="8.00">Out( pk(~ltk) )</text>
</g>
<!-- n25&#45;&gt;n8 -->
<g id="edge6" class="edge">
<title>n25:n22&#45;&gt;n8:n4</title>
<path fill="none" stroke="#7f7f7f" stroke-width="2" d="M125.75,-497.64C32.3,-497.64 40.42,-401.06 41.2,-307.23"/>
<polygon fill="#7f7f7f" stroke="#7f7f7f" stroke-width="2" points="44.69,-308.85 41.24,-298.83 37.69,-308.82 44.69,-308.85"/>
</g>
<!-- n25&#45;&gt;n16 -->
<g id="edge8" class="edge">
<title>n25:n23&#45;&gt;n16:n12</title>
<path fill="none" stroke="#7f7f7f" stroke-width="2" d="M231.38,-488.26C231.38,-483.52 231.55,-480.51 231.73,-477.55"/>
<polygon fill="#7f7f7f" stroke="#7f7f7f" stroke-width="2" points="235.17,-479.4 232.02,-469.29 228.17,-479.16 235.17,-479.4"/>
</g>
<!-- n30 -->
<g id="node10" class="node">
<title>n30</title>
<polygon fill="#a6dd9a" stroke="black" points="394.38,-242.06 394.38,-295.31 554.38,-295.31 554.38,-242.06 394.38,-242.06"/>
<text text-anchor="middle" x="438.62" y="-283.71" font-family="Helvetica,sans-Serif" font-size="8.00">!Ltk( $S, ~ltk )</text>
<polyline fill="none" stroke="black" points="482.88,-277.56 482.88,-295.31"/>
<text text-anchor="middle" x="518.62" y="-283.71" font-family="Helvetica,sans-Serif" font-size="8.00">In( AE1 )</text>
<polyline fill="none" stroke="black" points="394.38,-277.56 554.38,-277.56"/>
<text text-anchor="middle" x="474.38" y="-265.96" font-family="Helvetica,sans-Serif" font-size="8.00">#vr.2 : Serv_1[AnswerRequest( $S, ~k )]</text>
<polyline fill="none" stroke="black" points="394.38,-259.81 554.38,-259.81"/>
<text text-anchor="middle" x="474.38" y="-248.21" font-family="Helvetica,sans-Serif" font-size="8.00">Out( h(~k) )</text>
</g>
<!-- n25&#45;&gt;n30 -->
<g id="edge7" class="edge">
<title>n25:n22&#45;&gt;n30:n26</title>
<path fill="none" stroke="#7f7f7f" stroke-width="2" d="M159.5,-488.26C159.5,-459.87 259.8,-478.59 285.38,-466.26 373.65,-423.71 433.9,-399.56 438.36,-307.11"/>
<polygon fill="#7f7f7f" stroke="#7f7f7f" stroke-width="2" points="441.82,-308.91 438.55,-298.83 434.82,-308.75 441.82,-308.91"/>
</g>
<!-- n30&#45;&gt;n19 -->
<g id="edge9" class="edge">
<title>n30:n29&#45;&gt;n19</title>
<path fill="none" stroke="#4d4d4d" d="M393.38,-250.93C379.6,-250.93 392.08,-237.8 405.98,-226.06"/>
<polygon fill="#4d4d4d" stroke="#4d4d4d" points="407.87,-229.04 413.43,-220.01 403.46,-223.6 407.87,-229.04"/>
</g>
<!-- n31&#45;&gt;n30 -->
<g id="edge10" class="edge">
<title>n31&#45;&gt;n30:n27</title>
<path fill="none" stroke="#4d4d4d" d="M396.68,-322.57C431.78,-315.38 485.07,-304.32 507.77,-298.9"/>
<polygon fill="#4d4d4d" stroke="#4d4d4d" points="508.51,-302.33 517.17,-296.22 506.59,-295.6 508.51,-302.33"/>
</g>
</g>
</svg>
